<svg xmlns="http://www.w3.org/2000/svg" width="173" height="173" viewBox="0 0 173 173">
<g>
<path d="M 96.78,152.45 L 96.27,152.66 L 94.99,153.02 L 94.32,153.19 L 92.81,153.46 L 91.25,153.70 L 88.96,153.82 L 91.73,153.62 L 93.35,153.33 L 94.92,153.01 L 95.62,152.81 L 96.81,152.43 M 116.12,48.16 L 114.81,50.15 L 112.15,54.20 L 110.80,56.23 L 107.00,62.09 L 104.77,65.66 L 103.88,67.15 L 103.03,68.59 L 102.68,69.22 L 102.02,70.40 L 101.77,70.88 L 101.33,71.77 L 101.20,72.08 L 101.00,72.62 L 101.00,72.74 L 101.17,73.66 L 101.43,74.80 L 101.63,75.61 L 102.08,77.36 L 102.37,78.44 L 102.97,80.71 L 103.32,82.00 L 104.04,84.69 L 104.44,86.15 L 105.27,89.15 L 105.71,90.74 L 107.53,97.28 L 108.48,100.65 L 110.39,107.38 L 111.30,110.54 L 112.20,113.66 L 112.63,115.11 L 113.46,117.96 L 113.84,119.24 L 114.57,121.71 L 114.89,122.77 L 115.50,124.77 L 115.75,125.56 L 116.21,127.00 L 116.37,127.47 L 116.64,128.23 L 116.70,128.33 L 116.85,128.35 L 117.03,128.20 L 117.43,127.80 L 117.72,127.45 L 118.36,126.68 L 118.76,126.16 L 119.59,125.05 L 120.08,124.38 L 121.09,122.98 L 121.65,122.18 L 122.80,120.52 L 123.42,119.60 L 124.60,117.83 L 123.41,119.67 L 120.21,124.55 L 119.44,125.72 L 118.00,127.90 L 117.30,128.96 L 116.03,130.87 L 115.41,131.79 L 114.34,133.38 L 113.83,134.13 L 113.00,135.35 L 112.62,135.90 L 112.06,136.69 L 111.58,137.32 L 111.42,137.48 L 110.96,138.05 L 110.71,138.37 L 110.13,139.18 L 108.28,142.00 L 107.54,143.21 L 105.85,145.42 L 104.98,146.48 L 103.06,148.36 L 102.09,149.24 L 100.01,150.72 L 98.39,151.59 L 101.03,149.95 L 103.40,147.96 L 104.51,146.80 L 106.63,144.39 L 107.51,143.12 L 109.12,140.58 L 109.63,139.35 L 110.55,136.22 L 110.90,133.88 L 110.94,132.66 L 110.94,130.18 L 110.81,128.97 L 110.45,126.56 L 110.13,125.45 L 109.55,124.28 L 108.77,122.91 L 108.20,121.96 L 106.95,119.89 L 106.18,118.64 L 104.54,116.00 L 103.60,114.50 L 101.65,111.39 L 100.57,109.70 L 98.37,106.25 L 97.21,104.42 L 92.39,96.92 L 89.90,93.08 L 87.33,89.13 L 89.53,86.83 L 89.69,86.67 L 90.27,85.93 L 90.61,85.49 L 91.52,84.25 L 92.01,83.57 L 93.20,81.90 L 93.83,81.01 L 95.26,78.98 L 96.00,77.92 L 97.61,75.59 L 98.44,74.39 L 100.19,71.83 L 101.97,69.23 L 105.76,63.65 L 107.66,60.84 L 111.41,55.25 L 113.24,52.51 L 116.57,47.46 L 116.74,47.21 M 164.88,54.87 L 164.53,55.63 L 163.57,57.42 L 163.05,58.36 L 161.71,60.63 L 160.98,61.84 L 159.18,64.71 L 158.22,66.24 L 155.88,69.86 L 155.26,70.82 L 153.91,72.90 L 151.70,76.28 L 150.73,77.77 L 148.60,81.02 L 147.51,82.68 L 145.21,86.20 L 142.88,89.76 L 138.03,97.20 L 136.97,98.82 L 137.60,97.86 L 138.70,96.17 L 143.18,89.30 L 145.39,85.91 L 147.59,82.55 L 148.64,80.93 L 150.73,77.75 L 151.70,76.26 L 153.91,72.89 L 155.26,70.81 L 155.88,69.85 L 158.22,66.23 L 159.18,64.71 L 160.99,61.83 L 161.71,60.62 L 163.05,58.36 L 163.58,57.41 L 164.53,55.63 L 164.89,54.87 L 165.27,54.00 M 127.89,30.62 L 128.17,30.31 L 128.18,30.30 M 129.77,28.88 L 128.67,29.86 L 129.76,28.89 L 130.57,28.22 L 130.58,28.21 M 132.30,27.08 L 130.62,28.18 L 132.28,27.09 L 133.16,26.56 L 133.17,26.56 Z" fill="rgba(227,147,0,1)"/>
<path d="M 77.82,152.40 L 77.80,152.40 L 76.61,151.68 M 74.40,150.25 L 74.38,150.24 L 74.00,149.88 M 110.90,133.88 L 110.90,133.89 L 110.93,132.96 M 110.94,132.66 L 110.94,132.66 L 110.94,132.58 M 73.18,53.68 L 72.62,54.65 L 71.65,56.39 L 71.18,57.22 L 70.41,58.65 L 70.06,59.32 L 69.53,60.39 L 69.30,60.87 L 69.03,61.53 L 68.96,61.99 L 69.07,62.06 L 69.71,62.86 L 70.09,63.36 L 71.20,64.93 L 71.81,65.80 L 73.34,68.02 L 74.15,69.21 L 76.02,71.98 L 76.99,73.43 L 79.12,76.64 L 80.22,78.29 L 82.54,81.82 L 84.91,85.41 L 89.86,93.02 L 88.28,90.66 L 86.46,87.97 L 85.61,86.72 L 83.94,84.29 L 83.19,83.20 L 81.73,81.12 L 81.10,80.24 L 79.91,78.60 L 79.43,77.97 L 78.56,76.85 L 78.26,76.51 L 77.77,76.00 L 77.68,76.00 L 77.09,76.33 L 76.41,76.85 L 75.94,77.25 L 74.92,78.14 L 74.30,78.70 L 73.00,79.89 L 72.26,80.58 L 69.11,83.57 L 67.32,85.31 L 63.64,88.92 L 61.75,90.80 L 57.99,94.59 L 56.22,96.40 L 52.81,99.93 L 51.39,101.44 L 50.02,102.91 L 49.44,103.55 L 48.33,104.78 L 47.90,105.28 L 47.12,106.20 L 46.87,106.54 L 46.46,107.11 L 46.42,107.25 L 46.40,108.11 L 46.59,108.92 L 46.82,109.48 L 47.36,110.71 L 47.79,111.52 L 48.76,113.30 L 49.42,114.44 L 50.88,116.88 L 51.82,118.40 L 52.80,119.96 L 53.34,120.83 L 54.47,122.61 L 55.09,123.59 L 56.38,125.60 L 57.09,126.70 L 58.55,128.96 L 58.91,129.52 L 57.13,126.83 L 55.97,125.07 L 53.37,121.16 L 52.04,119.15 L 49.17,114.83 L 47.71,112.62 L 44.63,108.00 L 35.06,93.63 L 33.45,91.22 L 30.32,86.50 L 28.79,84.17 L 25.86,79.71 L 24.43,77.53 L 23.08,75.46 L 24.89,78.19 L 27.00,81.31 L 31.15,87.40 L 33.01,90.12 L 34.84,92.76 L 35.68,93.97 L 37.30,96.30 L 38.02,97.33 L 39.40,99.29 L 39.99,100.10 L 41.08,101.62 L 41.50,102.20 L 42.27,103.22 L 42.51,103.52 L 42.90,103.98 L 42.94,103.98 L 43.24,103.80 L 43.55,103.46 L 43.78,103.14 L 44.31,102.37 L 44.69,101.78 L 45.53,100.44 L 46.10,99.50 L 47.33,97.45 L 48.13,96.10 L 48.96,94.70 L 49.43,93.91 L 50.39,92.27 L 50.93,91.36 L 52.03,89.47 L 52.65,88.42 L 53.91,86.25 L 54.61,85.06 L 56.04,82.61 L 56.82,81.27 L 58.43,78.50 L 59.31,77.00 L 61.34,73.52 L 62.86,70.95 L 63.67,69.57 L 67.08,63.83 L 68.89,60.80 L 72.55,54.71 L 73.47,53.18 M 110.13,125.45 L 110.45,126.56 L 110.45,126.57 L 110.14,125.49 L 110.03,125.25 M 9.45,50.74 L 9.04,45.42 L 9.45,50.75 M 88.86,24.87 L 89.00,24.95 L 89.11,25.30 L 89.13,25.51 L 89.04,25.97 L 89.13,25.51 L 89.11,25.30 L 89.00,24.95 L 88.86,24.87 M 75.54,24.26 L 76.21,24.27 L 75.54,24.26 M 68.34,24.20 L 70.26,24.21 L 73.82,24.24 L 74.50,24.25 L 73.81,24.24 L 70.26,24.21 L 68.34,24.20 L 64.42,24.20 L 62.36,24.20 L 58.17,24.22 L 58.17,24.22 L 62.36,24.20 L 64.42,24.20 M 110.88,133.98 L 110.55,136.22 L 109.63,139.35 L 110.54,136.23 Z" fill="rgba(227,175,0,1)"/>
<path d="M 68.34,24.20 L 70.26,24.21 L 73.81,24.24 L 75.54,24.26 L 78.65,24.31 L 80.14,24.34 L 82.70,24.41 L 83.91,24.45 L 85.85,24.54 L 86.73,24.59 L 87.95,24.69 L 88.86,24.86 L 89.00,24.95 L 89.11,25.30 L 89.13,25.51 L 89.01,26.13 L 88.92,26.48 L 88.55,27.43 L 88.33,27.96 L 87.67,29.28 L 87.30,30.00 L 86.34,31.75 L 85.82,32.69 L 84.53,34.92 L 83.83,36.10 L 82.18,38.85 L 79.28,43.63 L 78.52,44.86 L 76.89,47.54 L 76.06,48.90 L 74.31,51.79 L 72.55,54.71 L 68.89,60.80 L 67.08,63.83 L 63.67,69.57 L 62.86,70.95 L 61.34,73.52 L 59.31,77.00 L 58.43,78.50 L 56.82,81.27 L 56.04,82.61 L 54.61,85.06 L 53.91,86.25 L 52.65,88.42 L 52.03,89.47 L 50.93,91.36 L 50.39,92.27 L 49.43,93.91 L 48.96,94.70 L 48.13,96.10 L 47.33,97.45 L 46.10,99.50 L 45.53,100.44 L 44.69,101.78 L 44.31,102.37 L 43.78,103.14 L 43.55,103.46 L 43.24,103.80 L 42.94,103.98 L 42.90,103.98 L 42.51,103.52 L 42.27,103.22 L 41.50,102.20 L 41.08,101.62 L 39.99,100.10 L 39.40,99.29 L 38.02,97.33 L 37.30,96.30 L 35.68,93.97 L 34.84,92.76 L 33.01,90.12 L 31.15,87.40 L 27.00,81.31 L 24.89,78.19 L 20.93,72.21 L 19.98,70.77 L 18.20,68.03 L 17.34,66.69 L 15.77,64.23 L 15.02,63.04 L 13.70,60.93 L 13.08,59.92 L 12.07,58.23 L 11.60,57.44 L 10.93,56.23 L 10.36,55.06 L 10.18,54.57 L 9.86,53.20 L 9.71,52.46 L 9.45,50.76 L 9.04,45.42 L 9.03,44.13 L 9.14,42.12 L 9.21,41.18 L 9.57,39.59 L 9.79,38.82 L 10.51,37.29 L 12.11,34.65 L 12.55,33.98 L 13.70,32.58 L 14.30,31.88 L 15.65,30.52 L 16.35,29.86 L 17.78,28.67 L 19.86,27.23 L 24.50,24.50 L 56.00,24.24 L 58.17,24.22 L 62.36,24.20 L 64.42,24.20 Z" fill="rgba(248,62,0,1)"/>
<path d="M 162.71,32.85 L 163.65,34.08 L 165.03,36.48 L 165.64,37.68 L 166.39,40.20 L 166.69,41.50 L 166.88,44.36 L 166.57,49.31 L 166.42,50.46 L 165.97,52.04 L 165.65,47.33 L 164.77,41.14 L 164.33,39.20 L 164.09,38.38 L 163.59,36.85 L 163.34,36.33 L 162.05,33.34 L 161.75,32.53 L 161.65,32.22 L 161.51,31.68 L 161.51,31.58 M 130.47,28.30 L 130.58,28.21 L 130.62,28.18 M 156.34,26.97 L 156.91,27.40 L 155.83,26.71 M 132.95,26.70 L 132.13,27.19 L 132.30,27.08 L 133.17,26.55 L 133.43,26.44 M 135.92,25.39 L 134.63,25.89 L 135.04,25.71 L 135.99,25.32 L 136.62,25.14 M 149.64,24.49 L 147.85,24.27 L 146.58,24.19 L 142.71,24.14 L 140.30,24.33 L 139.17,24.54 L 137.32,24.95 L 138.02,24.75 L 139.06,24.50 L 141.27,24.18 L 144.81,24.00 L 146.65,24.00 Z" fill="rgba(249,170,21,1)"/>
<path d="M 146.58,24.19 L 147.85,24.27 L 149.91,24.52 L 150.88,24.67 L 152.53,25.12 L 153.34,25.37 L 154.85,26.10 L 157.23,27.59 L 158.40,28.42 L 160.25,29.99 L 160.64,30.35 L 161.17,30.94 L 161.51,31.55 L 161.51,31.68 L 161.65,32.22 L 161.75,32.53 L 162.05,33.34 L 163.34,36.33 L 163.59,36.85 L 164.09,38.38 L 164.33,39.20 L 164.77,41.14 L 165.65,47.33 L 166.13,54.50 L 151.82,76.22 L 150.83,77.71 L 148.73,80.90 L 147.67,82.52 L 145.46,85.88 L 143.24,89.27 L 138.74,96.15 L 137.63,97.85 L 135.49,101.13 L 134.43,102.75 L 132.44,105.80 L 131.48,107.29 L 129.71,110.00 L 127.39,113.59 L 126.00,115.75 L 123.42,119.60 L 122.80,120.52 L 121.65,122.18 L 121.09,122.98 L 120.08,124.38 L 119.59,125.05 L 118.76,126.16 L 118.36,126.68 L 117.72,127.45 L 117.43,127.80 L 117.03,128.20 L 116.85,128.35 L 116.70,128.33 L 116.64,128.23 L 116.37,127.47 L 116.21,127.00 L 115.75,125.56 L 115.50,124.77 L 114.89,122.77 L 114.57,121.71 L 113.84,119.24 L 113.46,117.96 L 112.63,115.11 L 112.20,113.66 L 111.30,110.54 L 110.39,107.38 L 108.48,100.65 L 107.53,97.28 L 105.71,90.74 L 105.27,89.15 L 104.44,86.15 L 104.04,84.69 L 103.32,82.00 L 102.97,80.71 L 102.37,78.44 L 102.08,77.36 L 101.63,75.61 L 101.43,74.80 L 101.17,73.66 L 101.00,72.74 L 101.00,72.62 L 101.20,72.08 L 101.33,71.77 L 101.77,70.88 L 102.02,70.40 L 102.68,69.22 L 103.03,68.59 L 103.88,67.15 L 104.77,65.66 L 107.00,62.09 L 110.80,56.23 L 112.15,54.20 L 114.82,50.14 L 116.12,48.15 L 118.51,44.47 L 119.07,43.59 L 120.10,41.99 L 120.59,41.21 L 121.46,39.84 L 121.87,39.19 L 122.53,38.11 L 123.26,36.89 L 123.95,35.69 L 125.40,33.57 L 126.15,32.55 L 127.72,30.78 L 128.52,29.93 L 130.22,28.49 L 131.09,27.81 L 132.95,26.70 L 133.90,26.18 L 135.92,25.39 L 136.96,25.03 L 139.17,24.54 L 140.30,24.33 L 142.71,24.14 Z" fill="rgba(250,162,0,1)"/>
<path d="M 79.03,152.89 L 77.82,152.40 L 75.54,151.03 L 74.42,150.27 L 72.18,148.19 L 71.04,147.05 L 68.65,144.07 L 68.03,143.26 L 66.74,141.44 L 64.68,138.38 L 63.69,136.88 L 61.87,134.08 L 60.98,132.71 L 59.34,130.19 L 58.55,128.96 L 57.09,126.70 L 56.38,125.60 L 55.09,123.59 L 54.47,122.61 L 53.34,120.83 L 52.80,119.96 L 51.82,118.40 L 50.88,116.88 L 49.42,114.44 L 48.76,113.30 L 47.79,111.52 L 47.36,110.71 L 46.82,109.48 L 46.59,108.92 L 46.40,108.11 L 46.42,107.25 L 46.46,107.11 L 46.87,106.54 L 47.12,106.20 L 47.90,105.28 L 48.33,104.78 L 49.44,103.55 L 50.02,102.91 L 51.39,101.44 L 52.81,99.93 L 56.22,96.40 L 57.99,94.59 L 61.75,90.80 L 63.64,88.92 L 67.32,85.31 L 69.11,83.57 L 72.26,80.58 L 73.00,79.89 L 74.30,78.70 L 74.92,78.14 L 75.94,77.25 L 76.41,76.85 L 77.09,76.33 L 77.68,76.00 L 77.77,76.00 L 78.26,76.51 L 78.56,76.85 L 79.43,77.97 L 79.91,78.60 L 81.10,80.24 L 81.73,81.12 L 83.19,83.20 L 83.94,84.29 L 85.61,86.72 L 86.46,87.97 L 88.28,90.66 L 90.12,93.41 L 94.02,99.33 L 95.98,102.30 L 99.76,108.17 L 100.68,109.60 L 102.41,112.34 L 103.26,113.68 L 104.81,116.17 L 105.55,117.37 L 106.86,119.52 L 107.48,120.55 L 108.49,122.28 L 108.95,123.09 L 109.61,124.31 L 110.14,125.49 L 110.46,126.59 L 110.81,128.99 L 110.95,130.20 L 110.94,132.67 L 110.90,133.89 L 110.54,136.23 L 109.63,139.35 L 109.12,140.58 L 107.51,143.12 L 106.63,144.39 L 104.51,146.80 L 103.40,147.96 L 101.03,149.95 L 97.51,152.14 L 96.96,152.38 L 95.62,152.81 L 94.92,153.01 L 93.35,153.33 L 91.73,153.62 L 88.17,153.88 L 86.39,153.95 L 83.04,153.75 L 82.25,153.67 L 80.83,153.41 L 80.15,153.27 Z" fill="rgba(251,195,0,1)"/>
</g>
</svg>